<?xml version="1.0" encoding="utf-8"?>
<!-- Generator: Adobe Illustrator 16.0.0, SVG Export Plug-In . SVG Version: 6.00 Build 0)  -->
<!DOCTYPE svg PUBLIC "-//W3C//DTD SVG 1.1//EN" "http://www.w3.org/Graphics/SVG/1.1/DTD/svg11.dtd" [
	<!ENTITY ns_flows "http://ns.adobe.com/Flows/1.0/">
	<!ENTITY ns_extend "http://ns.adobe.com/Extensibility/1.0/">
	<!ENTITY ns_ai "http://ns.adobe.com/AdobeIllustrator/10.0/">
	<!ENTITY ns_graphs "http://ns.adobe.com/Graphs/1.0/">
]>
<svg version="1.1" xmlns:x="&ns_extend;" xmlns:i="&ns_ai;" xmlns:graph="&ns_graphs;"
	 xmlns="http://www.w3.org/2000/svg" xmlns:xlink="http://www.w3.org/1999/xlink" xmlns:a="http://ns.adobe.com/AdobeSVGViewerExtensions/3.0/"
	 x="0px" y="0px" width="150px" height="180px" viewBox="0 0 150 180" enable-background="new 0 0 150 180" xml:space="preserve">
<symbol  id="New_Symbol_101_8_" viewBox="-12.986 -12.64 25.973 25.28">
	<path fill="none" d="M4.936,7.705C4.936,4.979,2.726,2.77,0,2.77c-2.725,0-4.934,2.209-4.934,4.935S-2.725,12.64,0,12.64
		C2.726,12.64,4.936,10.431,4.936,7.705z"/>
	<path fill="none" d="M11.913,5.979C9.235,7.839,5.476,0.672,0.001,0.672H0c-5.475,0-9.234,7.167-11.912,5.307
		C-16.45,2.827-5.475-12.64,0.001-12.64C5.476-12.64,16.451,2.827,11.913,5.979z"/>
</symbol>
<symbol  id="New_Symbol_103" viewBox="-34.266 -34.265 68.53 68.53">
	
		<use xlink:href="#New_Symbol_101_8_"  width="25.973" height="25.28" x="-12.986" y="-12.64" transform="matrix(-1 0 0 -1 0 -21.6245)" overflow="visible"  a:adobe-blending-mode="multiply"/>
	
		<use xlink:href="#New_Symbol_101_8_"  width="25.973" height="25.28" x="-12.986" y="-12.64" transform="matrix(0.7071 -0.7071 0.7071 0.7071 15.2905 15.291)" overflow="visible"  a:adobe-blending-mode="multiply"/>
	
		<use xlink:href="#New_Symbol_101_8_"  width="25.973" height="25.28" x="-12.986" y="-12.64" transform="matrix(-0.7071 0.7071 -0.7071 -0.7071 -15.2915 -15.2905)" overflow="visible"  a:adobe-blending-mode="multiply"/>
	
		<use xlink:href="#New_Symbol_101_8_"  width="25.973" height="25.28" x="-12.986" y="-12.64" transform="matrix(0.7071 0.7071 -0.7071 0.7071 -15.2915 15.291)" overflow="visible"  a:adobe-blending-mode="multiply"/>
	
		<use xlink:href="#New_Symbol_101_8_"  width="25.973" height="25.28" x="-12.986" y="-12.64" transform="matrix(-0.7071 -0.7071 0.7071 -0.7071 15.2905 -15.2905)" overflow="visible"  a:adobe-blending-mode="multiply"/>
	
		<use xlink:href="#New_Symbol_101_8_"  width="25.973" height="25.28" x="-12.986" y="-12.64" transform="matrix(0 -1 1 0 21.6245 0)" overflow="visible"  a:adobe-blending-mode="multiply"/>
	
		<use xlink:href="#New_Symbol_101_8_"  width="25.973" height="25.28" x="-12.986" y="-12.64" transform="matrix(0 1 -1 0 -21.6255 0)" overflow="visible"  a:adobe-blending-mode="multiply"/>
	
		<use xlink:href="#New_Symbol_101_8_"  width="25.973" height="25.28" x="-12.986" y="-12.64" transform="matrix(1 0 0 1 0 21.6255)" overflow="visible"  a:adobe-blending-mode="multiply"/>
</symbol>
<symbol  id="New_Symbol_105" viewBox="-28.64 -25.897 57.278 51.795">
	
		<use xlink:href="#New_Symbol_101_8_"  width="25.973" height="25.28" x="-12.986" y="-12.64" transform="matrix(-1 0 0 1 0 13.2573)" overflow="visible"  a:adobe-blending-mode="multiply"/>
	
		<use xlink:href="#New_Symbol_101_8_"  width="25.973" height="25.28" x="-12.986" y="-12.64" transform="matrix(-1 0 0 1 0 -13.2568)" overflow="visible"  a:adobe-blending-mode="multiply"/>
	
		<use xlink:href="#New_Symbol_101_8_"  width="25.973" height="25.28" x="-12.986" y="-12.64" transform="matrix(0.7071 0.7071 -0.7071 0.7071 -15.9512 -8.7769)" overflow="visible"  a:adobe-blending-mode="multiply"/>
	
		<use xlink:href="#New_Symbol_101_8_"  width="25.973" height="25.28" x="-12.986" y="-12.64" transform="matrix(-0.7071 -0.7071 -0.7071 0.7071 -15.4463 6.7661)" overflow="visible"  a:adobe-blending-mode="multiply"/>
	
		<use xlink:href="#New_Symbol_101_8_"  width="25.973" height="25.28" x="-12.986" y="-12.64" transform="matrix(0.7071 -0.7071 0.7071 0.7071 15.9492 -8.7764)" overflow="visible"  a:adobe-blending-mode="multiply"/>
	
		<use xlink:href="#New_Symbol_101_8_"  width="25.973" height="25.28" x="-12.986" y="-12.64" transform="matrix(-0.7071 0.7071 0.7071 0.7071 15.6582 6.7397)" overflow="visible"  a:adobe-blending-mode="multiply"/>
</symbol>
<symbol  id="New_Symbol_3_12_" viewBox="-365.538 -65.374 710.701 130.749">
	<g>
		<path d="M-197.163,30v15c-24.854,0-45-20.147-45-45h15C-227.163,16.542-213.705,30-197.163,30z"/>
		<path d="M-197.163,45V30c16.542,0,30-13.458,30-30h15C-152.163,24.853-172.311,45-197.163,45z"/>
		<path d="M-197.163-30v-15c24.853,0,45,20.146,45,45h-15C-167.163-16.542-180.621-30-197.163-30z"/>
		<polygon points="-227.163,-65.375 -242.163,-65.375 -242.163,0 -227.163,0 		"/>
		<polygon points="-242.163,-45 -242.163,-30 -197.163,-30 -197.163,-45 		"/>
	</g>
	<g>
		<path d="M116.09,30v15c24.854,0,45-20.147,45-45h-15C146.09,16.542,132.632,30,116.09,30z"/>
		<path d="M116.09,45V30c-16.542,0-30-13.458-30-30h-15C71.09,24.853,91.237,45,116.09,45z"/>
		<path d="M116.09-30v-15c-24.853,0-45,20.146-45,45h15C86.09-16.542,99.548-30,116.09-30z"/>
		<polygon points="146.09,-45 161.09,-45 161.09,0 146.09,0 		"/>
		<polygon points="116.09,-45 116.09,-30 161.09,-30 161.09,-45 		"/>
	</g>
	<g>
		<path d="M-93.718-30v-15c-24.854,0-45,20.146-45,45h15C-123.718-16.542-110.261-30-93.718-30z"/>
		<polygon points="-123.718,65.375 -138.718,65.375 -138.718,0 -123.718,0 		"/>
		<polygon points="-78.718,30 -78.718,45 -138.718,45 -138.718,30 		"/>
		<polygon points="-78.718,-45 -78.718,-30 -93.718,-30 -93.718,-45 		"/>
	</g>
	<g>
		<path d="M14.282,30v15c24.854,0,45-20.147,45-45h-15C44.282,16.542,30.825,30,14.282,30z"/>
		<polygon points="44.282,-45 59.282,-45 59.282,0 44.282,0 		"/>
		<polygon points="-30.718,-45 -15.718,-45 -15.718,0 -30.718,0 		"/>
		<polygon points="21.782,37.5 6.782,37.5 6.782,-45 21.782,-45 		"/>
		<polygon points="-15.718,45 -30.718,45 -30.718,-45 -15.718,-45 		"/>
		<polygon points="14.282,30 14.282,45 -30.718,45 -30.718,30 		"/>
	</g>
	<polygon points="-47.163,-45 -62.163,-45 -62.163,45 -47.163,45 	"/>
	<g>
		<g>
			<path d="M300.163,65.375v-15c16.541,0,30-13.458,30-30h15C345.163,45.228,325.015,65.375,300.163,65.375z"/>
			<path d="M300.163-9.625v-15c24.852,0,45,20.146,45,45h-15C330.163,3.833,316.704-9.625,300.163-9.625z"/>
			<polygon points="270.163,-45 255.163,-45 255.163,20.375 270.163,20.375 			"/>
			<polygon points="255.163,50.375 255.163,65.375 300.163,65.375 300.163,50.375 			"/>
			<polygon points="255.163,-24.625 255.163,-9.625 300.163,-9.625 300.163,-24.625 			"/>
		</g>
		<polygon points="193.668,-45 178.668,-45 178.668,65.375 193.668,65.375 		"/>
		<polygon points="270.163,-45 255.163,-45 255.163,65.375 270.163,65.375 		"/>
		<polygon points="345.163,-45 325.163,-45 295.163,-17.125 315.163,-17.125 		"/>
		<polygon points="178.668,-24.625 178.668,-9.625 270.163,-9.625 270.163,-24.625 		"/>
	</g>
	<g>
		<path d="M-310.351,65.375c-30.479,0-55.188-24.708-55.188-55.188c0-30.479,24.709-55.187,55.188-55.187
			c30.479,0,55.188,24.708,55.188,55.187C-255.163,40.667-279.871,65.375-310.351,65.375z M-310.351-30
			c-22.16,0-40.188,18.028-40.188,40.187c0,22.16,18.028,40.188,40.188,40.188c22.159,0,40.188-18.028,40.188-40.188
			C-270.163-11.972-288.191-30-310.351-30z"/>
	</g>
</symbol>
<symbol  id="New_Symbol_79" viewBox="-23.5 -31.047 47 58.093">
	<g>
		<g>
			<path fill="none" stroke="#D1D3D4" stroke-width="2" stroke-linecap="round" stroke-linejoin="round" d="M-7.5-28.904v22.857
				c0,4.142,3.357,7.5,7.5,7.5s7.5-3.358,7.5-7.5H15c0,8.284-6.716,15-15,15s-15-6.716-15-15v-20h-7.5v52.093h7.5V18.99v-8.267v0
				c3.98,3.562,9.237,5.729,15,5.729c12.426,0,22.5-10.074,22.5-22.5v-20H15V-12.7"/>
			<g>
				<path fill="#D1D3D4" d="M-5.244-28.791c0-1.246-1.011-2.256-2.256-2.256s-2.256,1.01-2.256,2.256s1.011,2.256,2.256,2.256
					S-5.244-27.545-5.244-28.791z"/>
			</g>
			<g>
				<path fill="#D1D3D4" d="M17.256-12.813c0,1.246-1.011,2.256-2.256,2.256s-2.256-1.01-2.256-2.256s1.011-2.256,2.256-2.256
					S17.256-14.059,17.256-12.813z"/>
			</g>
		</g>
	</g>
</symbol>
<symbol  id="New_Symbol_98" viewBox="-12.986 -12.64 25.973 25.28">
	<path fill="#CCCCCC" d="M4.936,7.705C4.936,4.979,2.726,2.77,0,2.77c-2.725,0-4.934,2.209-4.934,4.935S-2.725,12.64,0,12.64
		C2.726,12.64,4.936,10.431,4.936,7.705z"/>
	<path fill="#CCCCCC" d="M11.913,5.979C9.235,7.839,5.476,0.672,0.001,0.672H0c-5.475,0-9.234,7.167-11.912,5.307
		C-16.45,2.827-5.475-12.64,0.001-12.64C5.476-12.64,16.451,2.827,11.913,5.979z"/>
</symbol>
<g id="Layer_3">
</g>
<g id="Layer_1">
	<g id="New_Symbol_33">
		<g id="New_Symbol_3">
			<g id="New_Symbol_31">
			</g>
		</g>
	</g>
	<g id="New_Symbol_46">
		<g id="New_Symbol_42">
			<g id="New_Symbol_41">
				<g id="New_Symbol_30">
					<g id="New_Symbol_3_1_">
					</g>
				</g>
			</g>
		</g>
	</g>
	<g id="New_Symbol_60">
	</g>
	<g id="New_Symbol_73">
		<g id="New_Symbol_3_6_">
			<g id="New_Symbol_63">
				<g id="New_Symbol_3_7_">
				</g>
			</g>
		</g>
	</g>
	<g id="New_Symbol_94">
		<g id="New_Symbol_95">
		</g>
	</g>
	<g id="New_Symbol_114">
		<g id="New_Symbol_101_7_"  a:adobe-blending-mode="multiply">
			<g  a:adobe-blending-mode="normal">
				<circle fill="#3B56A6" cx="75.336" cy="138.55" r="10.75"/>
				<path fill="#3B56A6" d="M49.384,134.791c5.834,4.052,14.025-11.562,25.952-11.562h0.002c11.927,0,20.118,15.614,25.952,11.562
					c9.887-6.869-14.025-40.565-25.954-40.565C63.409,94.226,39.497,127.922,49.384,134.791z"/>
			</g>
		</g>
		<g id="New_Symbol_101_6_"  a:adobe-blending-mode="multiply">
			<g  a:adobe-blending-mode="normal">
				<circle fill="#0D71BA" cx="120.521" cy="29.471" r="10.75"/>
				<path fill="#0D71BA" d="M136.213,50.479c-1.26-6.99-18.093-1.741-26.526-10.175l-0.001-0.002
					c-8.434-8.434-3.185-25.266-10.175-26.525c-11.848-2.134-18.766,38.6-10.331,47.035
					C97.613,69.246,138.347,62.327,136.213,50.479z"/>
			</g>
		</g>
		<g id="New_Symbol_101_5_"  a:adobe-blending-mode="multiply">
			<g  a:adobe-blending-mode="normal">
				<circle fill="#A67C52" cx="30.153" cy="119.832" r="10.75"/>
				<path fill="#A67C52" d="M14.46,98.823c1.26,6.99,18.093,1.741,26.526,10.175L40.988,109c8.434,8.434,3.185,25.266,10.175,26.525
					c11.848,2.134,18.766-38.6,10.331-47.035C53.061,80.057,12.327,86.976,14.46,98.823z"/>
			</g>
		</g>
		<g id="New_Symbol_101_4_"  a:adobe-blending-mode="multiply">
			<g  a:adobe-blending-mode="normal">
				<circle fill="#92298D" cx="30.156" cy="29.468" r="10.75"/>
				<path fill="#92298D" d="M51.165,13.775c-6.99,1.26-1.741,18.093-10.175,26.526l-0.001,0.001
					c-8.434,8.434-25.266,3.186-26.526,10.175C12.328,62.326,53.062,69.244,61.498,60.81C69.931,52.376,63.012,11.642,51.165,13.775
					z"/>
			</g>
		</g>
		<g id="New_Symbol_101_3_"  a:adobe-blending-mode="multiply">
			<g  a:adobe-blending-mode="normal">
				<circle fill="#ED2079" cx="120.518" cy="119.835" r="10.75"/>
				<path fill="#ED2079" d="M99.509,135.527c6.99-1.26,1.741-18.093,10.175-26.526l0.001-0.001
					c8.434-8.434,25.266-3.186,26.526-10.175c2.134-11.849-38.601-18.767-47.036-10.332
					C80.743,96.927,87.662,137.661,99.509,135.527z"/>
			</g>
		</g>
		<g id="New_Symbol_101_2_"  a:adobe-blending-mode="multiply">
			<g  a:adobe-blending-mode="normal">
				<circle fill="#21B573" cx="139.235" cy="74.655" r="10.75"/>
				<path fill="#21B573" d="M135.476,100.606c4.052-5.834-11.562-14.025-11.562-25.952v-0.002c0-11.927,15.614-20.118,11.562-25.952
					c-6.869-9.887-40.564,14.025-40.564,25.954C94.912,86.581,128.607,110.493,135.476,100.606z"/>
			</g>
		</g>
		<g id="New_Symbol_101_1_"  a:adobe-blending-mode="multiply">
			<g  a:adobe-blending-mode="normal">
				<circle fill="#ED1F24" cx="11.438" cy="74.65" r="10.75"/>
				<path fill="#ED1F24" d="M15.198,48.698C11.146,54.532,26.76,62.724,26.76,74.65v0.002c0,11.927-15.614,20.118-11.562,25.952
					c6.869,9.887,40.564-14.025,40.564-25.954C55.762,62.724,22.066,38.812,15.198,48.698z"/>
			</g>
		</g>
		<g id="New_Symbol_101"  a:adobe-blending-mode="multiply">
			<g  a:adobe-blending-mode="normal">
				<circle fill="#FBB03B" cx="75.34" cy="10.753" r="10.75"/>
				<path fill="#FBB03B" d="M101.292,14.512C95.458,10.46,87.267,26.074,75.34,26.074h-0.002c-11.927,0-20.118-15.614-25.952-11.562
					C39.5,21.381,63.411,55.077,75.34,55.077C87.267,55.077,111.179,21.381,101.292,14.512z"/>
			</g>
		</g>
	</g>
	<g>
		<g>
			<g>
				<path d="M24.362,151.844c2.966,0,5.232,0.911,6.798,2.733c1.566,1.823,2.35,4.39,2.35,7.704c0,3.334-0.773,5.824-2.318,7.471
					s-3.821,2.47-6.829,2.47c-3.007,0-5.289-0.849-6.845-2.548c-1.556-1.697-2.333-4.193-2.333-7.486
					c0-1.615,0.202-3.064,0.606-4.349s0.996-2.366,1.773-3.246c0.778-0.88,1.737-1.559,2.878-2.034
					C21.583,152.082,22.89,151.844,24.362,151.844z M19.136,162.266c0,2.262,0.451,3.916,1.354,4.963s2.193,1.57,3.873,1.57
					c0.727,0,1.405-0.129,2.038-0.389c0.633-0.259,1.183-0.652,1.649-1.182c0.466-0.529,0.834-1.209,1.104-2.038
					c0.269-0.829,0.404-1.805,0.404-2.925c0-2.26-0.446-3.977-1.338-5.148c-0.893-1.172-2.178-1.758-3.858-1.758
					c-1.68,0-2.971,0.586-3.873,1.758S19.136,160.006,19.136,162.266z"/>
				<path d="M38.331,157.381l-0.001,1.773c0.372-0.746,0.879-1.291,1.521-1.633c0.641-0.342,1.458-0.514,2.45-0.514
					c1.033,0,1.934,0.207,2.698,0.623c0.766,0.414,1.406,0.975,1.924,1.68c0.517,0.705,0.899,1.514,1.147,2.426
					c0.248,0.914,0.372,1.867,0.372,2.863c0,1.078-0.129,2.064-0.388,2.955c-0.259,0.893-0.636,1.664-1.132,2.318
					c-0.497,0.652-1.106,1.162-1.83,1.524s-1.551,0.544-2.481,0.544c-0.868,0-1.68-0.164-2.435-0.492s-1.339-0.873-1.752-1.633
					v8.473h-3.733v-20.908H38.331z M41.364,160.213c-2.084,0-3.126,1.54-3.126,4.621c0,1.207,0.294,2.19,0.882,2.95
					s1.347,1.14,2.275,1.14s1.692-0.4,2.291-1.202s0.898-1.837,0.898-3.106C44.585,161.68,43.512,160.213,41.364,160.213z"/>
				<path d="M61.137,160.057h-7.777v5.85c0,0.892,0.164,1.582,0.493,2.068c0.33,0.488,0.875,0.731,1.638,0.731
					c0.741,0,1.287-0.238,1.638-0.716c0.35-0.477,0.524-1.161,0.524-2.053v-3.703h3.484v4.076c0,0.746-0.108,1.462-0.326,2.146
					s-0.561,1.287-1.027,1.805c-0.466,0.519-1.062,0.934-1.788,1.244c-0.727,0.312-1.587,0.467-2.583,0.467
					c-1.037,0-1.918-0.155-2.645-0.467c-0.726-0.311-1.322-0.726-1.789-1.244c-0.466-0.518-0.809-1.12-1.026-1.805
					s-0.326-1.41-0.326-2.178v-12.725h3.733v3.826h7.777V160.057z"/>
				<path d="M66.363,155.701H62.63v-3.516h3.733V155.701z M66.363,171.568H62.63v-14.188h3.733V171.568z"/>
				<path d="M71.279,159.466c0.477-0.934,1.052-1.576,1.727-1.929c0.674-0.353,1.478-0.529,2.411-0.529
					c0.954,0,1.716,0.172,2.286,0.514s1.125,0.928,1.665,1.758c0.747-1.514,2.022-2.271,3.827-2.271c0.704,0,1.357,0.125,1.96,0.373
					c0.601,0.25,1.114,0.586,1.54,1.012c0.425,0.426,0.757,0.928,0.995,1.509s0.358,1.192,0.358,1.835v9.832h-3.672v-8.587
					c0-0.871-0.202-1.571-0.606-2.101c-0.404-0.528-0.938-0.793-1.603-0.793c-0.685,0-1.255,0.285-1.711,0.855
					s-0.685,1.291-0.685,2.162v8.463h-3.733v-8.525c0-1.14-0.171-1.902-0.514-2.286c-0.342-0.384-0.917-0.575-1.727-0.575
					c-1.535,0-2.302,0.923-2.302,2.769v8.618h-3.733v-14.188h3.516V159.466z"/>
				<path d="M95.857,157.008c2.012,0,3.521,0.478,4.526,1.432s1.51,2.344,1.51,4.168v8.961h-3.485
					c-0.041-0.166-0.083-0.342-0.124-0.529c-0.042-0.187-0.073-0.394-0.094-0.622c-0.456,0.478-1.047,0.835-1.773,1.073
					c-0.726,0.238-1.565,0.357-2.52,0.357c-1.432,0-2.577-0.352-3.438-1.057c-0.86-0.705-1.291-1.681-1.291-2.925
					c0-0.976,0.161-1.753,0.482-2.333c0.321-0.581,0.772-1.037,1.354-1.369c0.58-0.332,1.271-0.58,2.069-0.747
					c0.798-0.165,1.664-0.312,2.598-0.436c0.746-0.104,1.332-0.27,1.758-0.498c0.425-0.228,0.638-0.55,0.638-0.964
					c0-0.539-0.249-0.943-0.747-1.214c-0.497-0.269-1.047-0.404-1.648-0.404c-0.664,0-1.219,0.192-1.665,0.575
					c-0.446,0.385-0.71,0.898-0.793,1.541h-3.578c0.125-1.576,0.664-2.806,1.618-3.688
					C92.207,157.449,93.742,157.008,95.857,157.008z M98.159,164.631c-0.373,0.311-1.026,0.56-1.96,0.746
					c-1.286,0.249-2.157,0.545-2.613,0.887s-0.685,0.814-0.685,1.416c0,1.058,0.561,1.586,1.681,1.586
					c0.477,0,0.938-0.066,1.384-0.201s0.835-0.338,1.167-0.607s0.596-0.611,0.794-1.026c0.196-0.415,0.295-0.892,0.295-1.431
					c0-0.166-0.005-0.395-0.016-0.686C98.195,165.024,98.18,164.797,98.159,164.631z"/>
				<path fill="#FBB03B" d="M118.787,171.568h-4.014v-8.587h-7.467v8.587h-4.014v-19.134h4.014v7.218h7.467v-7.218h4.014V171.568z"
					/>
				<path fill="#FBB03B" d="M135.151,171.568h-3.921v-4.916c0-0.934-0.233-1.597-0.699-1.99c-0.467-0.395-1.24-0.592-2.318-0.592
					h-4.263v7.498h-3.889v-19.134h9.707c0.892,0,1.706,0.14,2.442,0.42s1.369,0.669,1.897,1.167
					c0.529,0.498,0.938,1.084,1.229,1.758c0.29,0.674,0.436,1.405,0.436,2.193c0,1.058-0.26,1.976-0.778,2.753
					c-0.519,0.778-1.244,1.343-2.178,1.696c0.851,0.27,1.452,0.68,1.805,1.229c0.353,0.55,0.529,1.385,0.529,2.504V171.568z
					 M123.95,155.764v5.102h4.979c0.871,0,1.576-0.243,2.115-0.73s0.81-1.094,0.81-1.82c0-0.746-0.265-1.357-0.794-1.836
					c-0.528-0.477-1.197-0.715-2.007-0.715H123.95z"/>
			</g>
		</g>
	</g>
</g>
</svg>
