<?xml version="1.0" encoding="utf-8"?>
<!-- Generator: Adobe Illustrator 16.0.0, SVG Export Plug-In . SVG Version: 6.00 Build 0)  -->
<!DOCTYPE svg [
	<!ENTITY ns_flows "http://ns.adobe.com/Flows/1.0/">
	<!ENTITY ns_extend "http://ns.adobe.com/Extensibility/1.0/">
	<!ENTITY ns_ai "http://ns.adobe.com/AdobeIllustrator/10.0/">
	<!ENTITY ns_graphs "http://ns.adobe.com/Graphs/1.0/">
]>
<svg version="1.2" baseProfile="tiny" xmlns:x="&ns_extend;" xmlns:i="&ns_ai;" xmlns:graph="&ns_graphs;"
	 xmlns="http://www.w3.org/2000/svg" xmlns:xlink="http://www.w3.org/1999/xlink" xmlns:a="http://ns.adobe.com/AdobeSVGViewerExtensions/3.0/"
	 x="0px" y="0px" width="150px" height="180px" viewBox="0 0 150 180" xml:space="preserve">
<g id="Layer_3">
</g>
<g id="Layer_1">
	<g id="New_Symbol_33">
		<g id="New_Symbol_3">
			<g id="New_Symbol_31">
			</g>
		</g>
	</g>
	<g id="New_Symbol_14">
	</g>
	<g id="New_Symbol_3_12_">
	</g>
	<g id="New_Symbol_46">
		<g id="New_Symbol_42">
			<g id="New_Symbol_41">
				<g id="New_Symbol_30">
					<g id="New_Symbol_3_1_">
					</g>
				</g>
			</g>
		</g>
	</g>
	<g id="New_Symbol_87">
	</g>
	<g id="New_Symbol_62">
	</g>
	<g id="New_Symbol_60">
	</g>
	<g id="New_Symbol_73">
		<g id="New_Symbol_3_6_">
			<g id="New_Symbol_63">
				<g id="New_Symbol_3_7_">
				</g>
			</g>
		</g>
	</g>
	<g id="New_Symbol_94">
		<g id="New_Symbol_95">
		</g>
	</g>
	<g id="New_Symbol_103_1_">
		<g id="New_Symbol_101_31_">
		</g>
		<g id="New_Symbol_101_30_">
		</g>
		<g id="New_Symbol_101_29_">
		</g>
		<g id="New_Symbol_101_28_">
		</g>
		<g id="New_Symbol_101_27_">
		</g>
		<g id="New_Symbol_101_26_">
		</g>
		<g id="New_Symbol_101_25_">
		</g>
		<g id="New_Symbol_101_24_">
		</g>
	</g>
	<g id="New_Symbol_103">
		<g id="New_Symbol_101_23_">
		</g>
		<g id="New_Symbol_101_22_">
		</g>
		<g id="New_Symbol_101_21_">
		</g>
		<g id="New_Symbol_101_20_">
		</g>
		<g id="New_Symbol_101_19_">
		</g>
		<g id="New_Symbol_101_18_">
		</g>
		<g id="New_Symbol_101_17_">
		</g>
		<g id="New_Symbol_101_16_">
		</g>
	</g>
	<g id="New_Symbol_114_1_">
		<g id="New_Symbol_101_15_">
		</g>
		<g id="New_Symbol_101_14_">
		</g>
		<g id="New_Symbol_101_13_">
		</g>
		<g id="New_Symbol_101_12_">
		</g>
		<g id="New_Symbol_101_11_">
		</g>
		<g id="New_Symbol_101_10_">
		</g>
		<g id="New_Symbol_101_9_">
		</g>
		<g id="New_Symbol_101_8_">
		</g>
	</g>
	<g id="New_Symbol_114">
		<g id="New_Symbol_101_7_">
			<g id="New_Symbol_101_39_"  a:adobe-blending-mode="multiply">
				<circle fill="#3B56A6"  a:adobe-blending-mode="normal" cx="75.336" cy="138.55" r="10.75"/>
				<path fill="#3B56A6"  a:adobe-blending-mode="normal" d="M49.384,134.791c5.834,4.052,14.025-11.562,25.952-11.562h0.002
					c11.927,0,20.118,15.614,25.952,11.562c9.887-6.869-14.025-40.565-25.954-40.565C63.409,94.226,39.497,127.922,49.384,134.791z"
					/>
			</g>
		</g>
		<g id="New_Symbol_101_6_">
			<g id="New_Symbol_101_38_"  a:adobe-blending-mode="multiply">
				<circle fill="#0D71BA"  a:adobe-blending-mode="normal" cx="120.521" cy="29.471" r="10.75"/>
				<path fill="#0D71BA"  a:adobe-blending-mode="normal" d="M136.213,50.479c-1.26-6.99-18.093-1.741-26.526-10.175l-0.001-0.002
					c-8.434-8.434-3.185-25.266-10.175-26.525c-11.848-2.134-18.766,38.6-10.331,47.035
					C97.613,69.246,138.347,62.327,136.213,50.479z"/>
			</g>
		</g>
		<g id="New_Symbol_101_5_">
			<g id="New_Symbol_101_37_"  a:adobe-blending-mode="multiply">
				<circle fill="#A67C52"  a:adobe-blending-mode="normal" cx="30.153" cy="119.832" r="10.75"/>
				<path fill="#A67C52"  a:adobe-blending-mode="normal" d="M14.46,98.823c1.26,6.99,18.093,1.741,26.526,10.175L40.988,109
					c8.434,8.434,3.185,25.266,10.175,26.525c11.848,2.134,18.766-38.6,10.331-47.035C53.061,80.057,12.327,86.976,14.46,98.823z"/>
			</g>
		</g>
		<g id="New_Symbol_101_4_">
			<g id="New_Symbol_101_36_"  a:adobe-blending-mode="multiply">
				<circle fill="#92298D"  a:adobe-blending-mode="normal" cx="30.156" cy="29.468" r="10.75"/>
				<path fill="#92298D"  a:adobe-blending-mode="normal" d="M51.165,13.775c-6.99,1.26-1.741,18.093-10.175,26.526l-0.001,0.001
					c-8.434,8.434-25.266,3.186-26.526,10.175C12.328,62.326,53.062,69.244,61.498,60.81C69.931,52.376,63.012,11.642,51.165,13.775
					z"/>
			</g>
		</g>
		<g id="New_Symbol_101_3_">
			<g id="New_Symbol_101_35_"  a:adobe-blending-mode="multiply">
				<circle fill="#ED2079"  a:adobe-blending-mode="normal" cx="120.518" cy="119.835" r="10.75"/>
				<path fill="#ED2079"  a:adobe-blending-mode="normal" d="M99.509,135.527c6.99-1.26,1.741-18.093,10.175-26.526l0.001-0.001
					c8.434-8.434,25.266-3.186,26.526-10.175c2.134-11.849-38.601-18.767-47.036-10.332
					C80.743,96.927,87.662,137.661,99.509,135.527z"/>
			</g>
		</g>
		<g id="New_Symbol_101_2_">
			<g id="New_Symbol_101_34_"  a:adobe-blending-mode="multiply">
				<circle fill="#21B573"  a:adobe-blending-mode="normal" cx="139.235" cy="74.655" r="10.75"/>
				<path fill="#21B573"  a:adobe-blending-mode="normal" d="M135.476,100.606c4.052-5.834-11.562-14.025-11.562-25.952v-0.002
					c0-11.927,15.614-20.118,11.562-25.952c-6.869-9.887-40.564,14.025-40.564,25.954
					C94.912,86.581,128.607,110.493,135.476,100.606z"/>
			</g>
		</g>
		<g id="New_Symbol_101_1_">
			<g id="New_Symbol_101_33_"  a:adobe-blending-mode="multiply">
				<circle fill="#ED1F24"  a:adobe-blending-mode="normal" cx="11.438" cy="74.65" r="10.75"/>
				<path fill="#ED1F24"  a:adobe-blending-mode="normal" d="M15.198,48.698C11.146,54.532,26.76,62.724,26.76,74.65v0.002
					c0,11.927-15.614,20.118-11.562,25.952c6.869,9.887,40.564-14.025,40.564-25.954C55.762,62.724,22.066,38.812,15.198,48.698z"/>
			</g>
		</g>
		<g id="New_Symbol_101">
			<g id="New_Symbol_101_32_"  a:adobe-blending-mode="multiply">
				<circle fill="#FBB03B"  a:adobe-blending-mode="normal" cx="75.34" cy="10.753" r="10.75"/>
				<path fill="#FBB03B"  a:adobe-blending-mode="normal" d="M101.292,14.512C95.458,10.46,87.267,26.074,75.34,26.074h-0.002
					c-11.927,0-20.118-15.614-25.952-11.562C39.5,21.381,63.411,55.077,75.34,55.077C87.267,55.077,111.179,21.381,101.292,14.512z"
					/>
			</g>
		</g>
	</g>
	<g id="New_Symbol_117">
	</g>
	<g id="New_Symbol_116">
	</g>
	<g id="New_Symbol_110">
	</g>
	<g id="New_Symbol_112">
	</g>
	<g>
		<text transform="matrix(1 0 0 1 14.749 171.5684)" font-family="'Coolvetica-Regular'" font-size="31.1121">Optima</text>
		<text transform="matrix(1 0 0 1 102.6396 171.5684)" fill="#FBB03B" font-family="'Coolvetica-Regular'" font-size="31.1121">HR</text>
	</g>
</g>
</svg>
